<svg id="Layer_2" data-name="Layer 2" xmlns="http://www.w3.org/2000/svg" viewBox="0 0 81 81"><defs><style>.cls-1{fill:none;stroke:#000;stroke-miterlimit:10;}</style></defs><title>dm-logo</title><path d="M535.44,366.94a14.89,14.89,0,0,1,2.81-4.64,12.54,12.54,0,0,1,4.12-2.95,11.88,11.88,0,0,1,5-1.1,15.09,15.09,0,0,1,5.62,1.1.91.91,0,0,0,1.27-.84v-8a5.56,5.56,0,0,0-.39-2.12,3.18,3.18,0,0,0-1.07-1.45,5.49,5.49,0,0,0-2.08-.76c-.63-.11-1.29-.2-2-.27a.92.92,0,0,1,0-1.83l10.27-.56.42.41v36.66a3.31,3.31,0,0,0,.37,1.64,3.22,3.22,0,0,0,.93,1q.91-2.75,2-5.6c.91-2.47,1.85-4.83,2.79-7.1a51.57,51.57,0,0,1-4,5.21c-.13.12-.32.28-.44.24-.37-.13-.24-1.49.35-2.35,3.46-4.55,4.13-5.64,5.56-8.43a6.62,6.62,0,0,1,2.53-2.9,2.58,2.58,0,0,1,1.86-.47,1.41,1.41,0,0,1,1,.6c.22.42,0,1-.38,1.85-2.11,4.63-4.81,12.14-5.82,14.83,3.54-4.38,10.88-12.31,15.51-15.93,5.48-4.22,9.36-2.78,5.82,4.21-.84,1.61-2.44,5.32-3.2,6.66,3-2.69,7.84-6.74,11.63-8.17.93-.34,6.83-2.36,4.55,1.09a37.19,37.19,0,0,0-5.31,13c-.5,3.62,1.18,5.56,3.88,4.13a47.33,47.33,0,0,0,9.69-8.22,37.84,37.84,0,1,0-74.12-10.72,38.65,38.65,0,0,0,.22,4.05A14.49,14.49,0,0,1,535.44,366.94Z" transform="translate(-531.91 -324.64)"/><path d="M601.7,384.58c-2.78,2-9,4.05-10.71-1-.67-2.28.26-7.33,1.43-10.28a31,31,0,0,1,2.37-5.06c-2.34,1.46-4.8,3.13-7.35,5s-4.79,3.77-6.83,5.58c-1,.89-2.27,2-2.77,1.62-.33-.22-.29-1,0-1.71,1.69-4,4.3-9.11,5.06-10.54,1.52-2.7.76-4.47-5.4.84-4.8,4.38-13.73,16.51-13.73,16.51h-9.48v-2.2l-.23-.06a11.12,11.12,0,0,1-3.54,2.62,9.82,9.82,0,0,1-4.33,1,10.23,10.23,0,0,1-4.48-1,11.36,11.36,0,0,1-1.47-.87,37.83,37.83,0,0,0,67.14-5.48A44.83,44.83,0,0,1,601.7,384.58Z" transform="translate(-531.91 -324.64)"/><path d="M552.28,361.94a7,7,0,0,0-1.88-1.14,6.23,6.23,0,0,0-2.5-.46,5.68,5.68,0,0,0-3,.86,8.22,8.22,0,0,0-2.47,2.45,12.78,12.78,0,0,0-1.61,3.93,22.19,22.19,0,0,0-.59,5.29,18.74,18.74,0,0,0,.44,4.2,11.06,11.06,0,0,0,1.49,3.52,7.57,7.57,0,0,0,2.46,2.48,6.56,6.56,0,0,0,3.57.94,6.37,6.37,0,0,0,3.64-1,11.27,11.27,0,0,0,2.2-1.85.92.92,0,0,0,.24-.63V365.17a.81.81,0,0,0-.05-.31,7.51,7.51,0,0,0-1.9-2.92Z" transform="translate(-531.91 -324.64)"/><circle class="cls-1" cx="40.5" cy="40.5" r="40"/></svg>